<svg width="843" height="364" viewBox="0 0 843 364" fill="none" xmlns="http://www.w3.org/2000/svg">
<path d="M634.531 265.62C660.617 265.62 681.764 244.473 681.764 218.387V129.531C681.764 119.572 687.183 110.88 695.234 106.24C694.884 106.228 694.534 106.219 694.182 106.214L693.572 106.21H615.638C599.987 106.21 587.299 118.898 587.299 134.55V218.387C587.299 244.473 608.446 265.62 634.531 265.62Z" fill="#FF00EE"/>
<path d="M693.572 200.675L694.182 200.671C719.987 200.344 740.804 179.325 740.804 153.443C740.804 132.366 726.999 114.515 707.938 108.436C702.781 106.792 696.966 107.312 692.83 110.803C687.507 115.297 684.125 122.019 684.125 129.531V200.675H693.572Z" fill="#FF00EE"/>
<mask id="mask0_160_1940" style="mask-type:alpha" maskUnits="userSpaceOnUse" x="684" y="107" width="57" height="94">
<path d="M693.574 200.675L694.185 200.671C719.989 200.344 740.807 179.325 740.807 153.443C740.807 132.366 727.002 114.515 707.94 108.436C702.784 106.792 696.968 107.312 692.833 110.803C687.509 115.297 684.128 122.019 684.128 129.532V200.675H693.574Z" fill="#FF00EE"/>
</mask>
<g mask="url(#mask0_160_1940)">
<path d="M693.574 200.675L694.185 200.671C719.989 200.344 740.807 179.325 740.807 153.443C740.807 132.366 727.002 114.515 707.94 108.436C702.784 106.792 696.968 107.312 692.833 110.803C687.509 115.297 684.128 122.019 684.128 129.532V200.675H693.574Z" fill="#FF00EE"/>
<path d="M693.574 200.675L694.185 200.671C719.989 200.344 740.807 179.325 740.807 153.443C740.807 132.366 727.002 114.515 707.94 108.436C702.784 106.792 696.968 107.312 692.833 110.803C687.509 115.297 684.128 122.019 684.128 129.532V200.675H693.574Z" fill="#00D9FF" fill-opacity="0.12"/>
<path d="M683.434 208.351V129.827C683.434 129.827 687.361 161.559 694.902 178.975C700.461 191.814 712.954 208.351 712.954 208.351H683.434Z" fill="#00D9FF" fill-opacity="0.08"/>
</g>
<path d="M539.948 190.121L540.317 190.496C555.849 206.426 555.726 231.93 539.948 247.708C527.626 260.031 509.372 262.805 494.378 256.031C489.064 253.63 484.865 248.749 484.796 242.917C484.732 237.471 486.778 232.004 490.934 227.848L534.304 184.477L539.948 190.121Z" fill="#74FF6D"/>
<path d="M482.361 118.137C498.263 102.235 524.046 102.235 539.948 118.137C554.976 133.165 555.802 157.019 542.425 173.017L489.263 226.178C483.216 232.226 481.184 240.77 483.169 248.494C483.023 248.357 482.879 248.218 482.735 248.078L482.361 247.708L437.614 202.962C426.547 191.894 426.547 173.951 437.614 162.884L482.361 118.137Z" fill="#74FF6D"/>
<mask id="mask1_160_1940" style="mask-type:alpha" maskUnits="userSpaceOnUse" x="484" y="184" width="68" height="76">
<path d="M539.948 190.122L540.317 190.496C555.849 206.426 555.726 231.931 539.948 247.709C527.626 260.031 509.372 262.805 494.378 256.031C489.064 253.63 484.865 248.749 484.796 242.918C484.732 237.471 486.778 232.004 490.934 227.848L534.304 184.478L539.948 190.122Z" fill="#74FF6D"/>
</mask>
<g mask="url(#mask1_160_1940)">
<path d="M539.948 190.122L540.317 190.496C555.849 206.426 555.726 231.931 539.948 247.709C527.626 260.031 509.372 262.805 494.378 256.031C489.064 253.63 484.865 248.749 484.796 242.918C484.732 237.471 486.778 232.004 490.934 227.848L534.304 184.478L539.948 190.122Z" fill="#74FF6D"/>
<path d="M539.948 190.122L540.317 190.496C555.849 206.426 555.726 231.931 539.948 247.709C527.626 260.031 509.372 262.805 494.378 256.031C489.064 253.63 484.865 248.749 484.796 242.918C484.732 237.471 486.778 232.004 490.934 227.848L534.304 184.478L539.948 190.122Z" fill="#3EF234"/>
<path d="M536.715 180.601L493.615 224.587C493.615 224.587 514.565 209.67 529.925 204.513C539.1 201.433 554.132 199.199 554.132 199.199L536.715 180.601Z" fill="#31EA27" fill-opacity="0.8"/>
</g>
<path d="M389.048 190.121L389.418 190.496C404.949 206.426 404.826 231.93 389.048 247.708C376.726 260.031 358.472 262.805 343.479 256.031C338.164 253.63 333.966 248.749 333.897 242.917C333.833 237.471 335.878 232.004 340.034 227.848L383.404 184.477L389.048 190.121Z" fill="#FFE100"/>
<path d="M331.461 118.137C347.364 102.235 373.146 102.235 389.048 118.137C404.077 133.165 404.903 157.019 391.525 173.017L338.364 226.178C332.316 232.226 330.285 240.77 332.269 248.494C332.124 248.357 331.979 248.218 331.836 248.078L331.461 247.708L286.714 202.962C275.647 191.894 275.647 173.951 286.714 162.884L331.461 118.137Z" fill="#FFE100"/>
<mask id="mask2_160_1940" style="mask-type:alpha" maskUnits="userSpaceOnUse" x="333" y="184" width="68" height="76">
<path d="M389.047 190.122L389.417 190.496C404.948 206.426 404.825 231.931 389.047 247.709C376.725 260.031 358.471 262.805 343.478 256.031C338.163 253.63 333.965 248.749 333.896 242.918C333.832 237.471 335.877 232.004 340.033 227.848L383.403 184.478L389.047 190.122Z" fill="#FFE100"/>
</mask>
<g mask="url(#mask2_160_1940)">
<path d="M389.047 190.122L389.417 190.496C404.948 206.426 404.825 231.931 389.047 247.709C376.725 260.031 358.471 262.805 343.478 256.031C338.163 253.63 333.965 248.749 333.896 242.918C333.832 237.471 335.877 232.004 340.033 227.848L383.403 184.478L389.047 190.122Z" fill="#FFE100"/>
<path d="M389.047 190.122L389.417 190.496C404.948 206.426 404.825 231.931 389.047 247.709C376.725 260.031 358.471 262.805 343.478 256.031C338.163 253.63 333.965 248.749 333.896 242.918C333.832 237.471 335.877 232.004 340.033 227.848L383.403 184.478L389.047 190.122Z" fill="#FF6D6D" fill-opacity="0.08"/>
<path d="M388.229 178.535L337.749 229.605C337.749 229.605 361.166 213.127 378.487 208.646C389.826 205.712 408.303 205.399 408.303 205.399L388.229 178.535Z" fill="#FF6D6D" fill-opacity="0.08"/>
</g>
<path d="M143.801 100.306C169.887 100.306 191.033 121.453 191.033 147.539V236.395C191.033 246.354 196.453 255.046 204.503 259.686C204.154 259.698 203.803 259.707 203.452 259.712L202.841 259.716H124.908C109.256 259.716 96.5684 247.028 96.5684 231.376V147.539C96.5684 121.453 117.715 100.306 143.801 100.306Z" fill="#00D9FF"/>
<path d="M202.841 165.251L203.452 165.255C229.256 165.582 250.074 186.601 250.074 212.483C250.074 233.56 236.269 251.412 217.207 257.49C212.051 259.135 206.235 258.614 202.1 255.123C196.776 250.629 193.395 243.907 193.395 236.395V165.251H202.841Z" fill="#00D9FF"/>
<mask id="mask3_160_1940" style="mask-type:alpha" maskUnits="userSpaceOnUse" x="193" y="165" width="58" height="94">
<path d="M202.842 165.251L203.453 165.255C229.257 165.582 250.074 186.602 250.074 212.483C250.074 233.56 236.269 251.412 217.208 257.49C212.052 259.135 206.236 258.614 202.1 255.123C196.777 250.629 193.396 243.907 193.396 236.395V165.251H202.842Z" fill="#00D9FF"/>
</mask>
<g mask="url(#mask3_160_1940)">
<path d="M202.842 165.251L203.453 165.255C229.257 165.582 250.074 186.602 250.074 212.483C250.074 233.56 236.269 251.412 217.208 257.49C212.052 259.135 206.236 258.614 202.1 255.123C196.777 250.629 193.396 243.907 193.396 236.395V165.251H202.842Z" fill="#00D9FF"/>
<path d="M202.842 165.251L203.453 165.255C229.257 165.582 250.074 186.602 250.074 212.483C250.074 233.56 236.269 251.412 217.208 257.49C212.052 259.135 206.236 258.614 202.1 255.123C196.777 250.629 193.396 243.907 193.396 236.395V165.251H202.842Z" fill="#FF00F2" fill-opacity="0.12"/>
<path d="M192.214 162.299V241.118C192.214 241.118 199.027 210.01 207.269 191.524C212.563 179.65 223.21 162.299 223.21 162.299H192.214Z" fill="#FF00F2" fill-opacity="0.08"/>
</g>
</svg>
